# xmcd
#
# Track frame offsets:
#	150
#	15431
#	34526
#	43924
#	55324
#	65224
#	80074
#	106249
#	123930
#	145138
#	175539
#	194783
#	207613
#	232063
#	249088
#	263863
#	283725
#
# Disc length: 3982 seconds
#
# Revision: 1
# Processed by: cddbd v1.5.2PL0 Copyright (c) Steve Scherf et al.
# Submitted via: audiograbber 1.83.01
#
DISCID=fd0f8c11
DTITLE=Mc Guinn, Clark and Hillman - Live at the Boarding House
DYEAR=1978
DGENRE=FolkRock
TTITLE0=Silver Raven
TTITLE1=Release me
TTITLE2=Bound to fall
TTITLE3=It doesn´t matter
TTITLE4=Ballad of Easy Rider
TTITLE5=Jolly Roger
TTITLE6=Chestnut mare
TTITLE7=Crazy Ladies
TTITLE8=Train leaves here this morning
TTITLE9=Mr. Tambourine man
TTITLE10=You ain´t going nowhere
TTITLE11=Turn turn turn
TTITLE12=Knocking on heavens door
TTITLE13=Bye bye baby
TTITLE14=So you want to be a Rock´N´Roll Star
TTITLE15=Eight miles high
TTITLE16=Feel a whole lot better
EXTD=
EXTT0=
EXTT1=
EXTT2=
EXTT3=
EXTT4=
EXTT5=
EXTT6=
EXTT7=
EXTT8=
EXTT9=
EXTT10=
EXTT11=
EXTT12=
EXTT13=
EXTT14=
EXTT15=
EXTT16=
PLAYORDER=
